M48
; DRILL file {KiCad 9.0.2} date 2025-07-03T22:11:35-0400
; FORMAT={-:-/ absolute / metric / decimal}
; #@! TF.CreationDate,2025-07-03T22:11:35-04:00
; #@! TF.GenerationSoftware,Kicad,Pcbnew,9.0.2
; #@! TF.FileFunction,Plated,1,2,PTH
FMAT,2
METRIC
; #@! TA.AperFunction,Plated,PTH,ComponentDrill
T1C0.700
; #@! TA.AperFunction,Plated,PTH,ComponentDrill
T2C0.889
; #@! TA.AperFunction,Plated,PTH,ComponentDrill
T3C1.210
; #@! TA.AperFunction,Plated,PTH,ComponentDrill
T4C1.500
%
G90
G05
T1
X185.4Y-36.85
X185.4Y-41.93
X204.79Y-37.03
X204.79Y-42.11
X224.19Y-36.57
X224.19Y-41.65
T2
X239.113Y-44.807
X239.113Y-60.047
X241.653Y-44.807
X241.653Y-60.047
X244.193Y-44.807
X244.193Y-60.047
X246.733Y-44.807
X246.733Y-60.047
X249.273Y-44.807
X249.273Y-60.047
X251.813Y-44.807
X251.813Y-60.047
X254.353Y-44.807
X254.353Y-60.047
T3
X178.115Y-37.85
X180.655Y-37.85
X197.2Y-37.332
X199.74Y-37.332
X216.491Y-37.126
X219.031Y-37.126
T4
X165.79Y-49.91
X172.14Y-47.37
X184.81Y-49.92
X191.16Y-47.38
X203.83Y-49.92
X210.18Y-47.38
X222.88Y-49.92
X229.23Y-47.38
M30
